name rise32.9588peak41.5061fall63.4684.mot
datacolumns 19
datarows 26
range 11.39829100000000 11.43995900000000
endheader
time	ground_force1_vx	ground_force1_vy	ground_force1_vz	ground_force1_px	ground_force1_py	ground_force1_pz	ground_force2_vx	ground_force2_vy	ground_force2_vz	ground_force2_px	ground_force2_py	ground_force2_pz	ground_torque1_x	ground_torque1_y	ground_torque1_z	ground_torque2_x	ground_torque2_y	ground_torque2_z	
11.39829100000000	-7.36296400000000	40.95186100000000	-10.94826500000000	0.27419800000000	0.00000000000000	0.08834100000000	-44.44984800000000	782.81213700000001	-52.70408100000000	0.10034300000000	0.00000000000000	-0.08470200000000	0.00000000000000	-6.38621900000000	0.00000000000000	0.00000000000000	-16.38820800000000	0.00000000000000	
11.39995300000000	-8.07238100000000	48.14789200000000	-12.29470500000000	0.28030600000000	0.00000000000000	0.08992700000000	-45.08156200000000	779.93111099999999	-52.40452000000000	0.09957600000000	0.00000000000000	-0.08459500000000	0.00000000000000	-7.27373100000000	0.00000000000000	0.00000000000000	-16.34908100000000	0.00000000000000	
11.40162700000000	-8.64076900000000	55.47437100000000	-13.51251500000000	0.28579500000000	0.00000000000000	0.09134100000000	-45.74492200000000	776.94311800000003	-52.08972800000000	0.09880500000000	0.00000000000000	-0.08448600000000	0.00000000000000	-8.10369000000000	0.00000000000000	0.00000000000000	-16.31546300000000	0.00000000000000	
11.40329200000000	-9.04765500000000	62.84030100000000	-14.57283800000000	0.29077000000000	0.00000000000000	0.09261300000000	-46.43938200000000	773.84568600000000	-51.75944400000000	0.09803100000000	0.00000000000000	-0.08437400000000	0.00000000000000	-8.85696500000000	0.00000000000000	0.00000000000000	-16.28729600000000	0.00000000000000	
11.40496100000000	-9.28072200000000	70.17598200000000	-15.45671500000000	0.29531400000000	0.00000000000000	0.09376500000000	-47.16424100000000	770.63624200000004	-51.41341100000000	0.09725500000000	0.00000000000000	-0.08426000000000	0.00000000000000	-9.52005500000000	0.00000000000000	0.00000000000000	-16.26449600000000	0.00000000000000	
11.40662800000000	-9.33569800000000	77.43529100000001	-16.15519300000000	0.29949200000000	0.00000000000000	0.09481400000000	-47.91864000000000	767.31211199999996	-51.05137800000000	0.09647700000000	0.00000000000000	-0.08414300000000	0.00000000000000	-10.08532900000000	0.00000000000000	0.00000000000000	-16.24694700000000	0.00000000000000	
11.40829500000000	-9.21561400000000	84.59563900000001	-16.66859400000000	0.30335700000000	0.00000000000000	0.09577400000000	-48.70156300000000	763.87054000000001	-50.67310100000000	0.09569900000000	0.00000000000000	-0.08402200000000	0.00000000000000	-10.55074700000000	0.00000000000000	0.00000000000000	-16.23450300000000	0.00000000000000	
11.40996200000000	-8.92958800000000	91.65599700000000	-17.00515200000000	0.30695100000000	0.00000000000000	0.09665800000000	-49.51183500000000	760.30868999999996	-50.27834500000000	0.09492100000000	0.00000000000000	-0.08389900000000	0.00000000000000	-10.91917600000000	0.00000000000000	0.00000000000000	-16.22699100000000	0.00000000000000	
11.41162000000000	-8.49132900000000	98.63348200000000	-17.17923300000000	0.31031100000000	0.00000000000000	0.09747500000000	-50.34812400000000	756.62366299999996	-49.86688900000000	0.09414500000000	0.00000000000000	-0.08377400000000	0.00000000000000	-11.19741100000000	0.00000000000000	0.00000000000000	-16.22420600000000	0.00000000000000	
11.41329100000000	-7.91752000000000	105.55904200000001	-17.20936600000000	0.31346500000000	0.00000000000000	0.09823300000000	-51.20893900000000	752.81250799999998	-49.43852200000000	0.09337100000000	0.00000000000000	-0.08364500000000	0.00000000000000	-11.39505200000000	0.00000000000000	0.00000000000000	-16.22591400000000	0.00000000000000	
11.41495600000000	-7.22624800000000	112.47275500000001	-17.11626900000000	0.31643800000000	0.00000000000000	0.09893900000000	-52.09263700000000	748.87223400000005	-48.99305100000000	0.09260000000000	0.00000000000000	-0.08351300000000	0.00000000000000	-11.52334100000000	0.00000000000000	0.00000000000000	-16.23185300000000	0.00000000000000	
11.41662100000000	-6.43559000000000	119.41918800000001	-16.92104900000000	0.31925000000000	0.00000000000000	0.09959900000000	-52.99741900000000	744.79982399999994	-48.53030000000000	0.09183400000000	0.00000000000000	-0.08337800000000	0.00000000000000	-11.59406500000000	0.00000000000000	0.00000000000000	-16.24173200000000	0.00000000000000	
11.41829100000000	-5.56244300000000	126.44317900000000	-16.64366800000000	0.32191700000000	0.00000000000000	0.10021700000000	-53.92133900000000	740.59225200000003	-48.05011300000000	0.09107200000000	0.00000000000000	-0.08324000000000	0.00000000000000	-11.61860600000000	0.00000000000000	0.00000000000000	-16.25523100000000	0.00000000000000	
11.41995500000000	-4.62165400000000	133.58629900000000	-16.30177300000000	0.32445400000000	0.00000000000000	0.10079800000000	-54.86230400000000	736.24649599999998	-47.55235700000000	0.09031700000000	0.00000000000000	-0.08309800000000	0.00000000000000	-11.60718400000000	0.00000000000000	0.00000000000000	-16.27200500000000	0.00000000000000	
11.42162200000000	-3.62545900000000	140.88414800000001	-15.90989300000000	0.32687300000000	0.00000000000000	0.10134600000000	-55.81808200000000	731.75955699999997	-47.03692400000000	0.08956900000000	0.00000000000000	-0.08295400000000	0.00000000000000	-11.56831900000000	0.00000000000000	0.00000000000000	-16.29168100000000	0.00000000000000	
11.42329400000000	-2.58321500000000	148.36454699999999	-15.47902700000000	0.32918400000000	0.00000000000000	0.10186300000000	-56.78630200000000	727.12847599999998	-46.50373200000000	0.08883000000000	0.00000000000000	-0.08280600000000	0.00000000000000	-11.50852100000000	0.00000000000000	0.00000000000000	-16.31386300000000	0.00000000000000	
11.42495700000000	-1.50141200000000	156.04659300000000	-15.01655600000000	0.33139700000000	0.00000000000000	0.10235200000000	-57.76446700000000	722.35034900000005	-45.95273000000000	0.08809900000000	0.00000000000000	-0.08265400000000	0.00000000000000	-11.43218300000000	0.00000000000000	0.00000000000000	-16.33812900000000	0.00000000000000	
11.42662300000000	-0.38388600000000	163.94050799999999	-14.52645000000000	0.33351700000000	0.00000000000000	0.10281600000000	-58.74995300000000	717.42235300000004	-45.38389400000000	0.08737900000000	0.00000000000000	-0.08250000000000	0.00000000000000	-11.34165400000000	0.00000000000000	0.00000000000000	-16.36403600000000	0.00000000000000	
11.42829100000000	0.76779400000000	172.04812400000000	-14.00969100000000	0.33555100000000	0.00000000000000	0.10325700000000	-59.74002200000000	712.34175900000002	-44.79723800000000	0.08666900000000	0.00000000000000	-0.08234100000000	0.00000000000000	-11.23745700000000	0.00000000000000	0.00000000000000	-16.39111900000000	0.00000000000000	
11.42995700000000	1.95384400000000	180.36388199999999	-13.46484200000000	0.33750500000000	0.00000000000000	0.10367700000000	-60.73182700000000	707.10595499999999	-44.19280800000000	0.08597200000000	0.00000000000000	-0.08218000000000	0.00000000000000	-11.11860200000000	0.00000000000000	0.00000000000000	-16.41889400000000	0.00000000000000	
11.43162300000000	3.17572800000000	188.87614199999999	-12.88868800000000	0.33938300000000	0.00000000000000	0.10407600000000	-61.72241900000000	701.71246900000006	-43.57068800000000	0.08528700000000	0.00000000000000	-0.08201400000000	0.00000000000000	-10.98296100000000	0.00000000000000	0.00000000000000	-16.44686000000000	0.00000000000000	
11.43328800000000	4.43563100000000	197.56867399999999	-12.27690300000000	0.34118800000000	0.00000000000000	0.10445800000000	-62.70876100000000	696.15899000000002	-42.93099700000000	0.08461600000000	0.00000000000000	-0.08184600000000	0.00000000000000	-10.82765600000000	0.00000000000000	0.00000000000000	-16.47449800000000	0.00000000000000	
11.43495800000000	5.73596300000000	206.42217700000000	-11.62466700000000	0.34292400000000	0.00000000000000	0.10482300000000	-63.68773000000000	690.44338600000003	-42.27389900000000	0.08396000000000	0.00000000000000	-0.08167300000000	0.00000000000000	-10.64944500000000	0.00000000000000	0.00000000000000	-16.50127700000000	0.00000000000000	
11.43662000000000	7.07894000000000	215.41570800000000	-10.92721900000000	0.34459300000000	0.00000000000000	0.10517200000000	-64.65613100000000	684.56372999999996	-41.59959200000000	0.08331800000000	0.00000000000000	-0.08149700000000	0.00000000000000	-10.44505500000000	0.00000000000000	0.00000000000000	-16.52665200000000	0.00000000000000	
11.43829000000000	8.46624900000000	224.52793900000000	-10.18030200000000	0.34619600000000	0.00000000000000	0.10550600000000	-65.61070700000000	678.51831600000003	-40.90832100000000	0.08269200000000	0.00000000000000	-0.08131700000000	0.00000000000000	-10.21147200000000	0.00000000000000	0.00000000000000	-16.55006800000000	0.00000000000000	
11.43995900000000	9.89880500000000	233.73817800000000	-9.38049100000000	0.34773600000000	0.00000000000000	0.10582600000000	-66.54814800000000	672.30568500000004	-40.20037100000000	0.08208300000000	0.00000000000000	-0.08113300000000	0.00000000000000	-9.94615300000000	0.00000000000000	0.00000000000000	-16.57096200000000	0.00000000000000	
